<svg width="65" height="62" viewBox="0 0 65 62" fill="none" xmlns="http://www.w3.org/2000/svg">
<path d="M14.4961 22.3164C14.6016 22.1934 14.7158 22 14.8389 21.7363C14.9619 21.4551 15.0762 21.1387 15.1816 20.7871C15.2871 20.418 15.3662 20.0225 15.4189 19.6006C15.4893 19.1611 15.5244 18.7217 15.5244 18.2822C15.5244 17.4033 15.3486 16.7617 14.9971 16.3574C14.6631 15.9355 14.2852 15.7246 13.8633 15.7246C13.6348 15.7246 13.3975 15.7949 13.1514 15.9355C12.9053 16.0762 12.6855 16.2959 12.4922 16.5947C12.2988 16.876 12.1318 17.2363 11.9912 17.6758C11.8682 18.1152 11.8066 18.6426 11.8066 19.2578C11.8066 19.5742 11.877 20.1367 12.0176 20.9453C12.1758 21.7539 12.3691 22.7031 12.5977 23.793C12.8262 24.8828 13.0635 26.0693 13.3096 27.3525C13.5732 28.6182 13.8193 29.8838 14.0479 31.1494C14.2764 32.415 14.4609 33.6279 14.6016 34.7881C14.7598 35.9307 14.8389 36.9238 14.8389 37.7676C14.8389 38.6113 14.6895 39.499 14.3906 40.4307C14.1094 41.3447 13.7402 42.25 13.2832 43.1465C12.8262 44.0254 12.3252 44.8604 11.7803 45.6514C11.2354 46.4424 10.708 47.1455 10.1982 47.7607C9.68848 48.3584 9.23145 48.833 8.82715 49.1846C8.42285 49.5361 8.13281 49.7119 7.95703 49.7119C7.6582 49.7119 7.37695 49.6943 7.11328 49.6592C6.86719 49.624 6.59473 49.5449 6.2959 49.4219C5.7334 49.1055 5.15332 48.7012 4.55566 48.209C3.97559 47.7168 3.42188 47.1807 2.89453 46.6006C2.34961 46.0205 1.85742 45.4316 1.41797 44.834C0.960938 44.2188 0.591797 43.6299 0.310547 43.0674C0.714844 42.5049 1.13672 41.96 1.57617 41.4326C1.94531 40.9756 2.3584 40.501 2.81543 40.0088C3.25488 39.5166 3.69434 39.0771 4.13379 38.6904H4.18652C4.4502 39.376 4.78418 40.1318 5.18848 40.958C5.59277 41.7842 6.02344 42.5576 6.48047 43.2783C6.95508 43.999 7.43848 44.6055 7.93066 45.0977C8.42285 45.5723 8.88867 45.8096 9.32812 45.8096C9.41602 45.8096 9.54785 45.7832 9.72363 45.7305C9.91699 45.6777 10.1016 45.5635 10.2773 45.3877C10.4531 45.1943 10.6025 44.9131 10.7256 44.5439C10.8662 44.1572 10.9365 43.6299 10.9365 42.9619C10.9365 42.5049 10.8486 41.7402 10.6729 40.668C10.5146 39.5957 10.3037 38.374 10.04 37.0029C9.77637 35.6318 9.49512 34.1904 9.19629 32.6787C8.91504 31.167 8.64258 29.7432 8.37891 28.4072C8.11523 27.0713 7.89551 25.9023 7.71973 24.9004C7.56152 23.8809 7.48242 23.1865 7.48242 22.8174C7.48242 22.0439 7.64062 21.2969 7.95703 20.5762C8.29102 19.8379 8.67773 19.1611 9.11719 18.5459C9.57422 17.9131 10.04 17.3594 10.5146 16.8848C10.9893 16.4102 11.3672 16.041 11.6484 15.7773C12.0703 15.4258 12.5361 15.0479 13.0459 14.6436C13.5732 14.2393 14.0918 13.8613 14.6016 13.5098C15.1289 13.1582 15.6211 12.8682 16.0781 12.6396C16.5352 12.3936 16.9131 12.2705 17.2119 12.2705C17.5107 12.2705 17.7832 12.3408 18.0293 12.4814C18.2754 12.6045 18.4863 12.833 18.6621 13.167C18.8555 13.4834 18.9961 13.9316 19.084 14.5117C19.1895 15.0742 19.2422 15.8037 19.2422 16.7002C19.2422 17.1045 19.1719 17.5 19.0312 17.8867C18.9082 18.2559 18.7412 18.625 18.5303 18.9941C18.3193 19.3457 18.082 19.6885 17.8184 20.0225C17.5547 20.3389 17.2822 20.6377 17.001 20.9189C16.333 21.5869 15.5859 22.2021 14.7598 22.7646L14.4961 22.3164ZM25.3594 16.3311C25.3594 15.9443 25.2539 15.6807 25.043 15.54C24.8496 15.3818 24.6035 15.3115 24.3047 15.3291C24.0059 15.3467 23.6807 15.417 23.3291 15.54C22.9775 15.6455 22.6523 15.7686 22.3535 15.9092L22.0107 15.1973C23.8037 14.3184 25.2627 13.7031 26.3877 13.3516C27.5303 13 28.3213 12.8242 28.7607 12.8242C28.8838 12.8242 29.0244 12.877 29.1826 12.9824C29.3584 13.0703 29.5166 13.2021 29.6572 13.3779C29.7979 13.5537 29.9209 13.7559 30.0264 13.9844C30.1318 14.1953 30.1846 14.415 30.1846 14.6436C30.1846 14.7842 29.9824 15.373 29.5781 16.4102C29.1738 17.4297 28.6904 18.7744 28.1279 20.4443C27.6709 21.8682 27.2314 23.2129 26.8096 24.4785C26.3877 25.7266 25.9834 26.9307 25.5967 28.0908C25.21 29.2334 24.832 30.3408 24.4629 31.4131C24.0938 32.4678 23.7246 33.5225 23.3555 34.5771C23.9004 33.874 24.4717 33.1621 25.0693 32.4414C25.667 31.7031 26.2383 31.0439 26.7832 30.4639C27.3281 29.8838 27.8291 29.4092 28.2861 29.04C28.7607 28.6709 29.1562 28.4863 29.4727 28.4863C29.5957 28.4863 29.8066 28.5479 30.1055 28.6709C30.4219 28.7764 30.7471 28.9521 31.0811 29.1982C31.415 29.4268 31.7051 29.7256 31.9512 30.0947C32.2148 30.4463 32.3555 30.877 32.373 31.3867C32.373 31.5625 32.25 31.9668 32.0039 32.5996C31.7578 33.2324 31.4502 33.9883 31.0811 34.8672C30.7295 35.7461 30.3428 36.7041 29.9209 37.7412C29.499 38.7783 29.1035 39.7979 28.7344 40.7998C28.3828 41.8018 28.084 42.7334 27.8379 43.5947C27.5918 44.4561 27.4688 45.1592 27.4688 45.7041C27.4688 45.915 27.4863 46.0732 27.5215 46.1787C27.5742 46.2666 27.6797 46.3105 27.8379 46.3105C28.0312 46.293 28.3213 46.1963 28.708 46.0205C29.0947 45.8271 29.543 45.5459 30.0527 45.1768C30.5625 44.8076 31.1074 44.3594 31.6875 43.832C32.2852 43.2871 32.874 42.6543 33.4541 41.9336L34.0605 42.4609C33.3223 43.3926 32.4873 44.2803 31.5557 45.124C30.6416 45.9502 29.7363 46.6797 28.8398 47.3125C27.9434 47.9453 27.0996 48.4463 26.3086 48.8154C25.5176 49.1846 24.876 49.3691 24.3838 49.3691C24.2959 49.3691 24.1816 49.334 24.041 49.2637C23.9004 49.1934 23.7598 49.0791 23.6191 48.9209C23.4785 48.7627 23.3555 48.543 23.25 48.2617C23.1445 47.9805 23.0918 47.6289 23.0918 47.207C23.0918 46.9961 23.1182 46.7324 23.1709 46.416C23.2236 46.082 23.2852 45.748 23.3555 45.4141C23.4258 45.0625 23.4961 44.7461 23.5664 44.4648C23.6543 44.166 23.7158 43.9463 23.751 43.8057C23.9092 43.1904 24.1289 42.5049 24.4102 41.749C24.709 40.9756 25.0254 40.1758 25.3594 39.3496C25.6934 38.5234 26.0361 37.7061 26.3877 36.8975C26.7393 36.0713 27.0557 35.3066 27.3369 34.6035C27.6182 33.8828 27.8467 33.2588 28.0225 32.7314C28.1982 32.1865 28.2861 31.7734 28.2861 31.4922C28.2861 31.2461 28.2158 31.123 28.0752 31.123C27.9521 31.123 27.7676 31.2285 27.5215 31.4395C27.2754 31.6328 26.9854 31.8965 26.6514 32.2305C26.335 32.5645 25.9922 32.9424 25.623 33.3643C25.2539 33.7686 24.8848 34.1904 24.5156 34.6299C24.1465 35.0518 23.7949 35.4648 23.4609 35.8691C23.1445 36.2559 22.8633 36.5986 22.6172 36.8975C22.002 38.708 21.3691 40.5889 20.7188 42.54C20.0859 44.4736 19.418 46.627 18.7148 49C18.5215 49.0352 18.3105 49.0615 18.082 49.0791C17.6777 49.1318 17.1504 49.1582 16.5 49.1582C16.2012 49.1582 15.8848 49.1406 15.5508 49.1055C15.2168 49.0879 14.8916 49.0527 14.5752 49L14.3906 48.7363C14.4785 48.5605 14.707 47.9893 15.0762 47.0225C15.4453 46.0381 15.9023 44.7988 16.4473 43.3047C16.9746 41.8105 17.5635 40.1318 18.2139 38.2686C18.8467 36.4053 19.4971 34.5068 20.165 32.5732C20.833 30.6396 21.4746 28.7412 22.0898 26.8779C22.7227 25.0146 23.2764 23.3359 23.751 21.8418C24.2432 20.3301 24.6299 19.082 24.9111 18.0977C25.21 17.1133 25.3594 16.5244 25.3594 16.3311ZM34.7988 35.2891C35.2207 34.2695 35.7393 33.3555 36.3545 32.5469C36.9697 31.7207 37.6465 31.0264 38.3848 30.4639C39.123 29.8838 39.9053 29.4443 40.7314 29.1455C41.5576 28.8467 42.3926 28.6973 43.2363 28.6973C43.6055 28.6973 44.0098 28.8027 44.4492 29.0137C44.9062 29.207 45.3281 29.4795 45.7148 29.8311C46.1016 30.1826 46.418 30.6133 46.6641 31.123C46.9277 31.6152 47.0596 32.1602 47.0596 32.7578C47.0596 33.2676 46.998 33.8564 46.875 34.5244C46.752 35.1748 46.5938 35.8516 46.4004 36.5547C46.207 37.2402 45.9961 37.9258 45.7676 38.6113C45.5391 39.2969 45.3193 39.9297 45.1084 40.5098C44.8975 41.0723 44.7041 41.5557 44.5283 41.96C44.3701 42.3643 44.2559 42.6367 44.1855 42.7773C43.7637 43.8145 43.2451 44.7373 42.6299 45.5459C42.0146 46.3545 41.3379 47.0488 40.5996 47.6289C39.8613 48.1914 39.0791 48.6221 38.2529 48.9209C37.4443 49.2197 36.6182 49.3691 35.7744 49.3691C35.4053 49.3691 35.001 49.2725 34.5615 49.0791C34.1045 48.8857 33.6826 48.6133 33.2959 48.2617C32.9092 47.8926 32.5928 47.4619 32.3467 46.9697C32.083 46.4775 31.9512 45.9326 31.9512 45.335C31.9512 44.8076 32.0127 44.2188 32.1357 43.5684C32.2588 42.9004 32.417 42.2236 32.6104 41.5381C32.8037 40.835 33.0146 40.1406 33.2432 39.4551C33.4717 38.7695 33.6914 38.1455 33.9023 37.583C34.1133 37.0205 34.2979 36.5371 34.4561 36.1328C34.6143 35.7109 34.7285 35.4297 34.7988 35.2891ZM42.1025 30.1475C41.6982 30.1475 41.2588 30.5078 40.7842 31.2285C40.3271 31.9316 39.8613 32.8369 39.3867 33.9443C38.9297 35.0518 38.4814 36.2646 38.042 37.583C37.6201 38.8838 37.2422 40.1406 36.9082 41.3535C36.5918 42.5664 36.3281 43.6387 36.1172 44.5703C35.9238 45.4844 35.8271 46.0996 35.8271 46.416C35.8271 46.9258 35.9238 47.2949 36.1172 47.5234C36.3105 47.752 36.5742 47.8662 36.9082 47.8662C37.207 47.8662 37.5234 47.6641 37.8574 47.2598C38.1914 46.8379 38.5342 46.2842 38.8857 45.5986C39.2373 44.9131 39.5801 44.1221 39.9141 43.2256C40.2656 42.3291 40.5996 41.4062 40.916 40.457C41.2324 39.4902 41.5225 38.5322 41.7861 37.583C42.0674 36.6338 42.3047 35.7549 42.498 34.9463C42.709 34.1377 42.8672 33.4434 42.9727 32.8633C43.0957 32.2656 43.1572 31.8525 43.1572 31.624C43.1572 31.1143 43.0605 30.7451 42.8672 30.5166C42.6738 30.2705 42.4189 30.1475 42.1025 30.1475ZM45.7939 60.3906C45.4775 60.5312 45.126 60.6279 44.7393 60.6807C44.335 60.751 43.9307 60.7949 43.5264 60.8125C43.1221 60.8477 42.7441 60.8564 42.3926 60.8389C42.0234 60.8389 41.7158 60.8389 41.4697 60.8389L41.3115 60.5488C41.5928 59.9863 41.9707 59.0986 42.4453 57.8857C42.9023 56.6904 43.4297 55.2754 44.0273 53.6406C44.6074 52.0234 45.2314 50.2568 45.8994 48.3408C46.5498 46.4248 47.2178 44.4648 47.9033 42.4609C48.2373 41.4414 48.5889 40.3691 48.958 39.2441C49.3271 38.1191 49.6611 37.0557 49.96 36.0537C50.2588 35.0518 50.5049 34.1729 50.6982 33.417C50.9092 32.6436 51.0146 32.1162 51.0146 31.835C51.0146 31.6416 50.9883 31.4746 50.9355 31.334C50.9004 31.1758 50.8564 31.0439 50.8037 30.9385C50.7334 30.8154 50.6631 30.7012 50.5928 30.5957V30.2002C50.9795 29.9541 51.4453 29.7344 51.9902 29.541C52.5352 29.3477 53.0625 29.1895 53.5723 29.0664C54.1523 28.9258 54.7588 28.8027 55.3916 28.6973L55.4971 28.8555C55.4971 29.0312 55.4707 29.2861 55.418 29.6201C55.3652 29.9365 55.2949 30.2969 55.207 30.7012C55.1367 31.1055 55.0488 31.5273 54.9434 31.9668C54.8555 32.3887 54.7588 32.793 54.6533 33.1797C55.1631 32.4766 55.6465 31.8174 56.1035 31.2021C56.5605 30.5693 57 30.0244 57.4219 29.5674C57.8438 29.0928 58.2393 28.7236 58.6084 28.46C58.9951 28.1787 59.3643 28.0381 59.7158 28.0381C59.9443 28.0381 60.2168 28.1348 60.5332 28.3281C60.8496 28.5039 61.1484 28.7412 61.4297 29.04C61.7285 29.3213 61.9746 29.6465 62.168 30.0156C62.3789 30.3672 62.4844 30.7188 62.4844 31.0703C62.4844 31.6855 62.4141 32.3623 62.2734 33.1006C62.1504 33.8213 61.9834 34.5508 61.7725 35.2891C61.5615 36.0098 61.333 36.7217 61.0869 37.4248C60.8408 38.1279 60.6035 38.7695 60.375 39.3496C60.1465 39.9121 59.9355 40.3955 59.7422 40.7998C59.5664 41.2041 59.4521 41.4678 59.3994 41.5908C58.8896 42.751 58.2832 43.8057 57.5801 44.7549C56.8945 45.7041 56.1826 46.5215 55.4443 47.207C54.7061 47.8926 53.9766 48.4287 53.2559 48.8154C52.5527 49.1846 51.9375 49.3691 51.4102 49.3691C50.8652 49.3691 50.4609 49.3076 50.1973 49.1846C49.9336 49.0615 49.7051 48.9297 49.5117 48.7891C49.248 49.5801 48.9844 50.3799 48.7207 51.1885C48.4395 51.9971 48.1494 52.8496 47.8506 53.7461C47.5518 54.6602 47.2354 55.6533 46.9014 56.7256C46.5674 57.8154 46.1982 59.0371 45.7939 60.3906ZM58.0547 30.8066C57.8789 30.8066 57.6504 30.9561 57.3691 31.2549C57.1055 31.5361 56.7979 31.9141 56.4463 32.3887C56.0947 32.8457 55.708 33.3643 55.2861 33.9443C54.8818 34.5244 54.4512 35.0957 53.9941 35.6582C53.7656 36.3965 53.4756 37.293 53.124 38.3477C52.79 39.3848 52.4385 40.457 52.0693 41.5645C51.7178 42.6543 51.375 43.7178 51.041 44.7549C50.707 45.7744 50.4346 46.6357 50.2236 47.3389C50.3818 47.5322 50.584 47.6992 50.8301 47.8398C51.0762 47.9629 51.3398 48.0244 51.6211 48.0244C52.0605 48.0244 52.5264 47.6904 53.0186 47.0225C53.5283 46.3369 54.0293 45.4668 54.5215 44.4121C55.0312 43.3574 55.5146 42.1973 55.9717 40.9316C56.4463 39.6484 56.8594 38.4092 57.2109 37.2139C57.5625 36.0186 57.8438 34.9463 58.0547 33.9971C58.2656 33.0303 58.3711 32.3271 58.3711 31.8877C58.3711 31.8174 58.3623 31.7295 58.3447 31.624C58.3447 31.501 58.3271 31.3779 58.292 31.2549C58.2744 31.1318 58.248 31.0264 58.2129 30.9385C58.1777 30.8506 58.125 30.8066 58.0547 30.8066Z" fill="#333333"/>
</svg>
